# xmcd
#
# Track frame offsets:
#   150
#   10722
#   21623
#   30780
#   40035
#   49837
#   59228
#   70175
#   80167
#   89683
#   98905
#   108676
#   117488
#   130195
#   139351
#   149041
#   159878
#   171639
#   182975
#   194216
#   206176
#   216673
#
# Disc length: 3039 seconds
#
# Revision: 0
# Processed by: cddbd v1.5.2PL0 Copyright (c) Steve Scherf et al.
# Submitted via: uFREEDB 1.6.0
#
DISCID=690bdd16
DTITLE=Jim Reeves - He'll Have To Go and Have I Told You Lately That I Love You?
DYEAR=1900
DGENRE=country
TTITLE0=He'll Have To Go
TTITLE1=I Love You More
TTITLE2=Wishful Thinking
TTITLE3=Honey, Won't You Please Come Home
TTITLE4=I'm Beginning To Forget You
TTITLE5=Billy Bayou
TTITLE6=If Heartache Is The Fashion
TTITLE7=Partners
TTITLE8=Theme Of Love (I Love To Say "I Love  You")
TTITLE9=I'd Like To Be
TTITLE10=After A While
TTITLE11=Home
TTITLE12=Have I Told You Lately That I Love You?
TTITLE13=I'm Gonna Change Everything
TTITLE14=Waltzing On Top Of The World
TTITLE15=Oklahoma Hills
TTITLE16=Beyond The Shadow Of A Doubt
TTITLE17=Roly Poly
TTITLE18=Each Time You Leave
TTITLE19=A Letter To My Heart
TTITLE20=Your Old Love Letters
TTITLE21=Highway To Nowhere
EXTD=
EXTT0=
EXTT1=
EXTT2=
EXTT3=
EXTT4=
EXTT5=
EXTT6=
EXTT7=
EXTT8=
EXTT9=
EXTT10=
EXTT11=
EXTT12=
EXTT13=
EXTT14=
EXTT15=
EXTT16=
EXTT17=
EXTT18=
EXTT19=
EXTT20=
EXTT21=
PLAYORDER=
